<?xml version="1.0" encoding="utf-8"?>
<!-- Generator: Adobe Illustrator 16.0.0, SVG Export Plug-In . SVG Version: 6.00 Build 0)  -->
<!DOCTYPE svg PUBLIC "-//W3C//DTD SVG 1.1//EN" "http://www.w3.org/Graphics/SVG/1.1/DTD/svg11.dtd">
<svg version="1.1" id="Capa_1" xmlns="http://www.w3.org/2000/svg" xmlns:xlink="http://www.w3.org/1999/xlink" x="0px" y="0px"
	 width="841.891px" height="595.281px" viewBox="0 0 841.891 595.281" enable-background="new 0 0 841.891 595.281"
	 xml:space="preserve">
<g>
	<path fill="#336600" d="M705.577,419.011l-82.443-100.929h36.526c5.229,0,9.989-2.978,12.264-7.68
		c2.28-4.699,1.664-10.284-1.567-14.397L582.26,184.517h26.26c5.133,0,9.834-2.878,12.155-7.462s1.861-10.069-1.176-14.222
		L504.142,5.564C501.579,2.077,497.503,0,493.165,0c-4.339,0-8.416,2.077-10.981,5.562L366.818,162.832
		c-3.036,4.152-3.487,9.639-1.177,14.222c2.324,4.585,7.023,7.461,12.157,7.461h26.281l-20.334,25.742l24.015,32.737
		c3.027,4.131,4.713,8.813,5.643,13.635c1.372,7.169,0.678,14.672-2.762,21.49c-2.205,4.35-5.251,8.07-8.885,11.009l44.704,56.557
		c7.916,10.07,9.424,24.017,3.859,35.536c-1.312,2.704-3.096,5.072-5.034,7.288c-2.517,2.878-5.357,5.426-8.66,7.288l36.771,45.017
		c8.188,10.03,9.894,24.057,4.338,35.75c-5.553,11.695-17.493,19.239-30.423,19.239h-12.312v85.862
		c0,7.522,6.103,13.614,13.625,13.614H537.7c7.523,0,13.625-6.092,13.625-13.614V441.246h143.703c5.259,0,10.047-3.037,12.3-7.777
		C709.594,428.709,708.909,423.085,705.577,419.011z"/>
	<path fill="#336600" d="M459.616,467.966c2.264-4.761,1.577-10.383-1.753-14.458l-59.917-73.344h22.049
		c5.222,0,9.992-2.979,12.264-7.679c2.273-4.701,1.665-10.283-1.566-14.399l-64.472-81.572h14.371c5.131,0,9.833-2.881,12.155-7.464
		c2.312-4.585,1.862-10.069-1.176-14.222l-87.93-119.872c-1.536-2.097-3.967-3.33-6.552-3.33c-2.586,0-5.016,1.233-6.553,3.33
		l-87.931,119.872c-3.037,4.153-3.486,9.638-1.176,14.222c2.321,4.584,7.023,7.464,12.157,7.464h14.37l-64.473,81.572
		c-3.231,4.116-3.839,9.698-1.566,14.399c2.273,4.699,7.045,7.679,12.264,7.679h22.049l-59.916,73.344
		c-3.331,4.075-4.017,9.697-1.753,14.458c2.252,4.739,7.042,7.776,12.302,7.776h105.092v20.061v85.862
		c0,7.522,6.103,13.614,13.625,13.614h63.021c7.521,0,13.624-6.092,13.624-13.614v-85.862v-20.061h105.091
		C452.573,475.743,457.364,472.706,459.616,467.966z"/>
</g>
</svg>
